# xmcd CD database file
#
# Track frame offsets:
#	150
#	18035
#	35557
#	53950
#	71472
#	89262
#	107787
#	125897
#	144262
#	162920
#	180952
#	199510
#	217475
#	235012
#	252627
#	270512
#	288640
#	306120
#	335452
#
# Disc length: 4795 seconds
#
# Revision: 0
# Processed by: cddbd v1.5PL3 Copyright (c) Steve Scherf et al.
# Submitted via: CDex 1.51
#
DISCID=1912b913
DTITLE=Various Artist - SUPER EUROBEAT VOL.145
DYEAR=2004
DGENRE=EUROBEAT
TTITLE0=ME, MYSELF and I - CHRISTINE
TTITLE1=FOOL FOR YOUR LOVING - JEAN LOVE
TTITLE2=SUNSHINE IN YOUR EYES - DAVE and DOMINO
TTITLE3=HARMONY - REGINA
TTITLE4=WAKE ME UP - KING and QUEEN
TTITLE5=FOREVER YOUNG - SYMBOL
TTITLE6=LIVIN' ON A PRAYER - NIKO
TTITLE7=I'LL BE LIVING - BABY GOLD
TTITLE8=FIGHTIN' OVER FREEDOM - ACE
TTITLE9=LOVELY TANGO - HELENA
TTITLE10=RAGING LOVE - MEGA NRG MAN
TTITLE11=BYE BYE BABY - PIZZA GIRL
TTITLE12=I WANNA BE THE KNIGHT - KRIS T.
TTITLE13=DON'T YOU FORGET MY LOVE - ALEXIS
TTITLE14=COCOA BILL - BABY BAZOOKA
TTITLE15=NEVER GIVE UP (IN THE NAME OF LOVE) - KEVIN JOHNSON
TTITLE16=I CAN FEEL YOU - SUSY WENDER
TTITLE17=WE'LL SEE HEAVEN - DIGITAL PLANET
TTITLE18=@
EXTD=YEAR: 2004
EXTT0=
EXTT1=
EXTT2=
EXTT3=
EXTT4=
EXTT5=
EXTT6=
EXTT7=
EXTT8=
EXTT9=
EXTT10=
EXTT11=
EXTT12=
EXTT13=
EXTT14=
EXTT15=
EXTT16=
EXTT17=
EXTT18=
PLAYORDER=
